PathFileType	4	(X/Y/Z)	C:/Users/beibeiliu/ov580/test_trc\sequence.10_training_dense_right.trc
DataRate	CameraRate	NumFrames	NumMarkers	Units	OrigDataRate	OrigDataStartFrame	OrigNumFrames
120	120	12	19	mm	120	227	302
Frame#	Time	ThumbCMC			ThumbMCP			ThumbIP			ThumbTip			IndexMCP			IndexPIP			IndexTip			MiddleMCP			MiddlePIP			MiddleTip			RingMCP			RingPIP			RingTip			PinkyMCP			PinkyPIP			PinkyTip			BackHand1			BackHand2			BackHand3	
		X0	Y0	Z0	X1	Y1	Z1	X2	Y2	Z2	X3	Y3	Z3	X4	Y4	Z4	X5	Y5	Z5	X6	Y6	Z6	X7	Y7	Z7	X8	Y8	Z8	X9	Y9	Z9	X10	Y10	Z10	X11	Y11	Z11	X12	Y12	Z12	X13	Y13	Z13	X14	Y14	Z14	X15	Y15	Z15	X16	Y16	Z16	X17	Y17	Z17	X18	Y18	Z18	
226	1.88333	145.386	-4.41643	16.2763	122.722	17.303	4.30281	117.156	33.2015	-7.32395	111.869	51.7996	-22.0419	138.857	58.1011	-6.75944	140.684	80.3893	-16.2195	141.749	99.1165	-22.4014	159.076	71.2879	-15.4521	152.601	91.3112	-19.8133	156.072	112.929	-24.6401	173.552	64.7508	-19.3139	171.546	79.8802	-24.8193	169.166	99.316	-28.7112	189.027	47.2646	-20.8076	185.322	65.6093	-26.0619	184.854	83.2893	-26.4741	185.555	32.7478	3.44053	189.425	9.86743	20.4312	162.375	19.68	20.805	
227	1.89167	146.648	-4.7991	16.431	122.819	13.5824	4.78973	120.721	33.9481	-8.59552	116.483	46.9933	-20.8255	143.477	60.9881	-9.02323	140.738	82.5798	-17.3389	141.342	100.338	-24.0875	160.111	69.6613	-14.8616	154.252	89.178	-20.0065	156.751	110.93	-24.7427	174.435	63.1842	-19.4381	170.895	80.5469	-24.299	172.442	102.464	-29.3489	189.113	48.6639	-21.0693	186.437	67.6925	-26.955	186.788	84.4405	-30.3817	185.238	30.1852	3.50622	191.026	9.21968	21.5449	167.068	17.9627	21.9619	
228	1.9	141.352	-1.5901	17.5252	122.695	12.64	6.54308	121.655	33.973	-7.91014	116.333	49.3734	-22.6441	143.818	57.6862	-8.90412	141.651	77.5451	-15.4558	139.005	102.665	-23.2168	161.499	65.3222	-14.4998	156.494	87.0619	-20.5948	154.671	111.411	-23.8529	174.184	58.2306	-18.4738	174.417	81.8911	-26.0322	171.311	102.277	-29.36	193.612	46.4307	-22.1837	188.906	62.2347	-25.9333	184.156	83.3629	-27.7438	185.045	27.6285	6.03308	190.088	9.96125	21.6686	161.57	20.7587	21.9023	
229	1.90833	143.242	-3.88441	17.8734	125.048	11.0107	6.28601	119.13	32.6904	-6.9959	115.184	46.0392	-21.3846	143.253	58.7362	-7.58463	141.841	78.3142	-15.1852	142.888	103.45	-24.3889	156.819	65.0961	-12.8521	157.141	90.9787	-20.6282	155.282	113.166	-25.4761	173.611	62.9238	-18.0496	172.989	82.5231	-25.2172	172.854	98.1896	-29.7739	192.264	50.7154	-21.9901	185.11	66.9371	-26.989	185.131	85.1889	-30.1213	186.278	31.1571	2.4427	191.184	8.8962	22.6777	162.792	19.9824	22.8025	
230	1.91667	147.35	-0.498626	15.6425	127.156	15.1849	4.32281	120.756	32.3271	-8.13747	119.299	50.3741	-23.2854	141.671	59.048	-7.27574	142.164	77.1228	-16.406	139.078	99.4369	-22.8281	160.667	66.0199	-13.7363	154.932	90.2165	-19.9759	154.278	109.514	-24.5725	173.119	60.1075	-18.0142	173.273	83.2189	-26.1308	169.666	102.849	-30.6592	190.453	50.8714	-21.9785	188.621	67.5871	-27.8618	186.412	81.3062	-30.2538	188.684	28.2961	4.37295	195.217	10.0172	21.6634	163.272	18.3954	21.7515	
231	1.925	143.199	-1.16176	16.6556	124.042	17.5672	4.31255	117.542	34.7767	-7.96901	119.426	51.7877	-23.4131	139.606	60.6868	-8.46347	138.401	83.5085	-18.2204	141.258	102.943	-25.388	160.929	68.0845	-16.9648	155.688	91.4594	-23.2095	157.515	110.492	-27.3408	173.208	61.3745	-20.0929	172.137	80.303	-26.6544	173.186	99.8287	-32.8965	194.261	49.4644	-22.9175	189.509	68.3215	-29.993	184.578	83.4646	-29.525	186.246	30.16	3.89049	193.078	14.5324	20.0131	165.739	22.7096	19.4565	
232	1.93333	145.755	0.199446	14.7661	126.509	17.6126	1.27956	120.142	40.2255	-12.3199	117.055	54.8167	-28.0039	142.331	65.2467	-13.8571	140.967	83.6233	-24.0829	141.489	102.285	-30.1113	160.125	72.5226	-21.6687	156.721	89.4501	-27.4575	158.132	116.511	-33.3987	177.184	65.0331	-24.673	171.262	84.9976	-32.0024	170.306	102.721	-36.6212	190.521	51.3339	-24.8517	186.852	68.9493	-32.1232	184.224	81.3022	-34.8828	187.039	34.3224	-0.398447	194.467	12.627	19.788	161.346	22.7425	20.2744	
233	1.94167	144.118	4.70388	12.8163	123.722	22.2767	-1.18221	120.496	43.2891	-17.3606	115.434	54.5344	-32.5131	141.333	63.8062	-19.4655	140.577	85.909	-31.6492	140.83	100.671	-39.8819	156.595	71.6676	-25.3034	154.443	89.7783	-35.7242	154.738	115.016	-42.119	175.896	64.2221	-29.9468	175.13	81.3446	-39.4333	173.376	102.361	-45.8749	192.217	49.0514	-30.2853	188.653	69.5167	-39.5746	187.87	82.4915	-43.0528	187.776	33.2282	-0.151273	190.382	19.7912	16.9127	164.949	27.3314	15.6054	
234	1.95	142.936	7.87473	9.70313	125.506	26.5131	-7.01514	119.962	43.9725	-24.56	120.426	55.1247	-40.7526	144.787	68.1032	-30.3912	143.065	83.621	-43.2157	138.364	102.121	-54.0842	160.058	70.0996	-35.0312	155.204	86.5469	-46.3831	155.481	111.291	-57.395	175.275	63.2708	-37.2459	174.866	78.8019	-48.6526	170.234	100.423	-58.4216	194.139	50.5206	-37.7691	186.542	63.5868	-45.8027	184.565	79.2894	-52.4747	186.37	37.6093	-5.16269	189.49	22.4485	13.7607	163.74	31.4985	9.87138	
235	1.95833	140.718	14.92	5.5595	122.502	26.5145	-9.95825	117.602	44.0453	-30.4837	114.897	52.6887	-47.8964	139.821	65.8509	-37.8743	137.91	82.3702	-53.7103	141.776	94.3058	-67.1364	157.942	70.1314	-43.9392	154.883	86.97	-59.6469	155.165	103.673	-70.5692	176.561	60.21	-44.3856	175.775	75.5136	-58.564	172.162	92.1808	-70.6077	189.828	48.5266	-41.1288	189.942	64.6461	-56.7555	187.252	75.7933	-63.7911	182.06	38.979	-7.57873	187.457	25.9376	11.0395	161.206	36.4739	6.26958	
236	1.96667	139.352	17.3662	4.38605	121.025	25.6817	-12.196	119.088	41.3333	-34.9947	117.754	50.0146	-55.3304	141.938	63.3259	-45.6215	136.037	75.7316	-63.6023	134.857	90.9409	-81.5319	158.332	67.0926	-52.2205	153.869	79.2463	-68.0552	156.695	99.9756	-86.4577	176.94	60.7553	-53.3619	176.115	71.8633	-67.0484	171.295	84.9421	-80.8869	189.169	50.8711	-47.9506	186.582	59.6131	-61.6505	184.672	75.2682	-74.0185	186.186	40.6063	-14.2034	186.78	26.8829	10.5087	160.408	38.7892	0.940615	
237	1.975	137.496	20.4963	2.5304	117.863	27.5153	-16.6331	115.952	38.26	-38.733	114.586	43.4554	-59.0002	141.234	59.2724	-52.1241	139.683	66.8535	-71.9839	137.867	81.4028	-94.2094	158.394	64.3941	-62.1781	155.861	73.633	-80.7429	155.857	89.3441	-99.1384	176.013	57.8773	-60.9241	173.34	64.6878	-75.424	174.141	76.2794	-91.3475	191.419	46.7873	-52.2453	192.167	55.9123	-68.6698	187.582	66.1397	-81.9637	181.226	44.5511	-16.2291	183.727	34.1398	7.59104	159.046	41.9562	0.268973	
